<svg id="Layer_1" data-name="Layer 1" xmlns="http://www.w3.org/2000/svg" viewBox="0 0 311.7 311.7"><defs><style>.cls-1{fill:none;stroke:#2d4379;stroke-linecap:round;stroke-linejoin:round;stroke-width:20px;}</style></defs><title>github</title><path class="cls-1" d="M118.3,256.7c-66.9,20.1-66.9-33.4-93.6-40.1m187.2,80.2V245a45.17,45.17,0,0,0-12.6-34.9c42-4.7,86.1-20.6,86.1-93.6a72.87,72.87,0,0,0-20.1-50.2,67.59,67.59,0,0,0-1.2-50.4s-15.8-4.7-52.3,19.8a179,179,0,0,0-93.6,0C81.8,11.2,66,15.9,66,15.9a67.59,67.59,0,0,0-1.2,50.4,72.57,72.57,0,0,0-20.1,50.6c0,72.5,44.1,88.4,86.1,93.6A45,45,0,0,0,118.2,245v51.8"/></svg>