<svg id="Layer_1" data-name="Layer 1" xmlns="http://www.w3.org/2000/svg" viewBox="0 0 311.7 311.7"><defs><style>.cls-1,.cls-2{fill:none;}.cls-1,.cls-2,.cls-3{stroke:#2d4379;stroke-miterlimit:10;}.cls-1{stroke-width:20px;}.cls-2{stroke-width:23.17px;}.cls-3{fill:#2d4379;stroke-width:11.82px;}</style></defs><title>instagram</title><path class="cls-1" d="M86.1,15.7H226.3a70.12,70.12,0,0,1,70.1,70.1V226a70.12,70.12,0,0,1-70.1,70.1H86.1A70.18,70.18,0,0,1,16,226V85.8A70.12,70.12,0,0,1,86.1,15.7Z"/><path class="cls-2" d="M221.2,147.8a65,65,0,1,1-73.8-54.7,67.89,67.89,0,0,1,19.1,0A64.92,64.92,0,0,1,221.2,147.8Z"/><ellipse class="cls-3" cx="238.5" cy="72.8" rx="10" ry="9.8"/></svg>